<svg width="75" height="76" viewBox="0 0 75 76" fill="none" xmlns="http://www.w3.org/2000/svg">
<path opacity="0.05" fill-rule="evenodd" clip-rule="evenodd" d="M39.3931 2.59399C30.2076 4.51366 27.4449 15.2635 20.8253 21.7166C14.2571 28.1195 3.04508 30.8096 1.34985 39.6802C-0.487656 49.2951 5.1655 58.9671 12.4019 65.7931C19.5522 72.538 29.6162 77.5363 39.3931 75.5662C48.3005 73.7713 50.8814 63.2352 57.079 56.7906C62.8407 50.7992 71.9366 47.6393 73.9035 39.6802C76.2693 30.1069 75.0005 19.1326 68.1932 11.8172C61.1596 4.25866 49.6685 0.446546 39.3931 2.59399Z" fill="#9771FD"/>
<path opacity="0.05" fill-rule="evenodd" clip-rule="evenodd" d="M35.9812 12.1803C27.8018 12.0942 19.1539 7.4316 12.3762 12.0106C4.88936 17.0687 2.0313 26.6077 1.29794 35.6123C0.492661 45.4998 0.874352 56.6981 8.19099 63.3985C15.3648 69.968 26.2576 67.6647 35.9812 67.3743C45.2528 67.0974 54.9697 67.6464 62.1594 61.7866C69.9853 55.4083 75.5787 45.6879 74.9521 35.6123C74.3494 25.9193 67.4185 17.5071 59.0946 12.5022C52.2301 8.37485 43.9909 12.2646 35.9812 12.1803Z" fill="#9771FD"/>
<path d="M43.6485 15.6875H31.6199C23.1389 15.6875 16.2839 22.4445 16.2839 30.7636V33.1612H59.0029V30.7636C58.9845 22.4445 52.111 15.6875 43.6485 15.6875Z" fill="#D99A64"/>
<path d="M43.6485 15.6875H31.6199C23.1389 15.6875 16.2839 22.4445 16.2839 30.7636V33.1612H59.0029V30.7636C58.9845 22.4445 52.111 15.6875 43.6485 15.6875Z" fill="url(#paint0_radial_0_511)"/>
<g filter="url(#filter0_f_0_511)">
<path d="M37.204 27.4166C37.9897 27.4166 38.6267 26.7904 38.6267 26.018C38.6267 25.2455 37.9897 24.6194 37.204 24.6194C36.4182 24.6194 35.7812 25.2455 35.7812 26.018C35.7812 26.7904 36.4182 27.4166 37.204 27.4166Z" fill="#E5A671"/>
</g>
<path d="M37.6251 27.0399C38.4108 27.0399 39.0478 26.4137 39.0478 25.6413C39.0478 24.8689 38.4108 24.2427 37.6251 24.2427C36.8393 24.2427 36.2023 24.8689 36.2023 25.6413C36.2023 26.4137 36.8393 27.0399 37.6251 27.0399Z" fill="url(#paint1_radial_0_511)"/>
<g filter="url(#filter1_f_0_511)">
<path d="M27.2431 26.0179C28.1022 26.0179 28.7987 25.3284 28.7987 24.4777C28.7987 23.6271 28.1022 22.9375 27.2431 22.9375C26.3839 22.9375 25.6874 23.6271 25.6874 24.4777C25.6874 25.3284 26.3839 26.0179 27.2431 26.0179Z" fill="#DE9B64"/>
</g>
<path d="M28.1833 25.4415C28.969 25.4415 29.606 24.8153 29.606 24.0429C29.606 23.2704 28.969 22.6442 28.1833 22.6442C27.3975 22.6442 26.7606 23.2704 26.7606 24.0429C26.7606 24.8153 27.3975 25.4415 28.1833 25.4415Z" fill="url(#paint2_radial_0_511)"/>
<g filter="url(#filter2_f_0_511)">
<path d="M46.6451 25.6407C47.4309 25.6407 48.0678 25.0145 48.0678 24.2421C48.0678 23.4697 47.4309 22.8435 46.6451 22.8435C45.8593 22.8435 45.2224 23.4697 45.2224 24.2421C45.2224 25.0145 45.8593 25.6407 46.6451 25.6407Z" fill="#F4B982"/>
</g>
<path d="M47.0669 25.4415C47.8526 25.4415 48.4896 24.8153 48.4896 24.0429C48.4896 23.2704 47.8526 22.6442 47.0669 22.6442C46.2811 22.6442 45.6441 23.2704 45.6441 24.0429C45.6441 24.8153 46.2811 25.4415 47.0669 25.4415Z" fill="url(#paint3_radial_0_511)"/>
<g filter="url(#filter3_f_0_511)">
<path d="M32.3818 21.8013C33.241 21.8013 33.9374 21.1117 33.9374 20.2611C33.9374 19.4105 33.241 18.7209 32.3818 18.7209C31.5227 18.7209 30.8262 19.4105 30.8262 20.2611C30.8262 21.1117 31.5227 21.8013 32.3818 21.8013Z" fill="#DE9D64"/>
</g>
<path d="M33.135 21.5181C33.9208 21.5181 34.5577 20.8919 34.5577 20.1195C34.5577 19.3471 33.9208 18.7209 33.135 18.7209C32.3492 18.7209 31.7123 19.3471 31.7123 20.1195C31.7123 20.8919 32.3492 21.5181 33.135 21.5181Z" fill="url(#paint4_radial_0_511)"/>
<g filter="url(#filter4_f_0_511)">
<path d="M41.4235 21.8013C42.2093 21.8013 42.8463 21.1751 42.8463 20.4027C42.8463 19.6303 42.2093 19.0041 41.4235 19.0041C40.6378 19.0041 40.0008 19.6303 40.0008 20.4027C40.0008 21.1751 40.6378 21.8013 41.4235 21.8013Z" fill="#E6A769"/>
</g>
<path d="M42.115 21.5181C42.9007 21.5181 43.5377 20.8919 43.5377 20.1195C43.5377 19.3471 42.9007 18.7209 42.115 18.7209C41.3292 18.7209 40.6922 19.3471 40.6922 20.1195C40.6922 20.8919 41.3292 21.5181 42.115 21.5181Z" fill="url(#paint5_radial_0_511)"/>
<path d="M58.7075 32.7434H16.5427V38.5559H58.7075V32.7434Z" fill="url(#paint6_linear_0_511)"/>
<path d="M58.7075 32.7434H16.5427V38.5559H58.7075V32.7434Z" fill="url(#paint7_linear_0_511)"/>
<path d="M59.1508 48.5642H16.0992C13.7341 48.5642 11.8125 46.6751 11.8125 44.3501C11.8125 42.0252 13.7341 40.1361 16.0992 40.1361H59.1508C61.5159 40.1361 63.4375 42.0252 63.4375 44.3501C63.4375 46.6751 61.5159 48.5642 59.1508 48.5642Z" fill="url(#paint8_linear_0_511)"/>
<path d="M59.1508 48.5642H16.0992C13.7341 48.5642 11.8125 46.6751 11.8125 44.3501C11.8125 42.0252 13.7341 40.1361 16.0992 40.1361H59.1508C61.5159 40.1361 63.4375 42.0252 63.4375 44.3501C63.4375 46.6751 61.5159 48.5642 59.1508 48.5642Z" fill="url(#paint9_radial_0_511)"/>
<path d="M59.1508 48.5642H16.0992C13.7341 48.5642 11.8125 46.6751 11.8125 44.3501C11.8125 42.0252 13.7341 40.1361 16.0992 40.1361H59.1508C61.5159 40.1361 63.4375 42.0252 63.4375 44.3501C63.4375 46.6751 61.5159 48.5642 59.1508 48.5642Z" fill="url(#paint10_radial_0_511)"/>
<g filter="url(#filter5_f_0_511)">
<path fill-rule="evenodd" clip-rule="evenodd" d="M25.9474 30.9328C28.8595 30.9328 31.7335 32.1011 33.0332 32.7834C34.3328 33.4657 35.3553 34.0025 37.6434 34.0025C41.0663 34.0025 51.3024 30.9328 55.4863 33.1328C56.784 33.8152 55.2272 34.0025 57.5029 34.0025L58.0791 36.5879C56.7539 36.5879 55.5704 36.2323 53.9663 35.3889L53.9298 35.3697C52.6321 34.6874 51.6152 34.1526 49.3394 34.1526C47.0651 34.1526 46.0479 34.6867 44.7478 35.3692L44.7088 35.3897C43.1009 36.2337 41.1925 37.2223 37.6434 37.2223C34.0944 37.2223 32.186 36.2337 30.5781 35.3897L30.5391 35.3692C29.2389 34.6867 28.2218 34.1526 25.9474 34.1526C23.6699 34.1526 22.6479 34.6883 21.3437 35.372L21.3084 35.3905C19.701 36.2329 19.3604 36.5879 17.459 36.5879C17.459 36.5879 17.5573 33.4634 18.8552 32.7832C20.4679 31.9378 22.3807 30.9328 25.9474 30.9328Z" fill="url(#paint11_linear_0_511)"/>
<path fill-rule="evenodd" clip-rule="evenodd" d="M25.9474 30.9328C28.8595 30.9328 31.7335 32.1011 33.0332 32.7834C34.3328 33.4657 35.3553 34.0025 37.6434 34.0025C41.0663 34.0025 51.3024 30.9328 55.4863 33.1328C56.784 33.8152 55.2272 34.0025 57.5029 34.0025L58.0791 36.5879C56.7539 36.5879 55.5704 36.2323 53.9663 35.3889L53.9298 35.3697C52.6321 34.6874 51.6152 34.1526 49.3394 34.1526C47.0651 34.1526 46.0479 34.6867 44.7478 35.3692L44.7088 35.3897C43.1009 36.2337 41.1925 37.2223 37.6434 37.2223C34.0944 37.2223 32.186 36.2337 30.5781 35.3897L30.5391 35.3692C29.2389 34.6867 28.2218 34.1526 25.9474 34.1526C23.6699 34.1526 22.6479 34.6883 21.3437 35.372L21.3084 35.3905C19.701 36.2329 19.3604 36.5879 17.459 36.5879C17.459 36.5879 17.5573 33.4634 18.8552 32.7832C20.4679 31.9378 22.3807 30.9328 25.9474 30.9328Z" fill="#E0215C"/>
</g>
<path fill-rule="evenodd" clip-rule="evenodd" d="M18.8906 30.5051C20.498 29.6627 22.4068 28.6732 25.9476 28.6732C29.4893 28.6732 31.394 29.6634 32.9991 30.5059L33.0333 30.5239C34.333 31.2062 35.3554 31.743 37.6436 31.743C39.9317 31.743 40.9541 31.2062 42.2538 30.5239L42.288 30.5059C43.8931 29.6634 45.7978 28.6732 49.3396 28.6732C52.8813 28.6732 54.7861 29.6633 56.3902 30.5067L56.4268 30.5259C57.7244 31.2082 58.7414 31.743 61.0171 31.743C62.4363 31.743 63.5869 32.874 63.5869 34.2692C63.5869 35.6644 62.4363 36.7955 61.0171 36.7955C57.4753 36.7955 55.5705 35.8054 53.9664 34.962L53.9299 34.9429C52.6322 34.2605 51.6153 33.7258 49.3396 33.7258C47.0652 33.7258 46.048 34.2598 44.7479 34.9424L44.7089 34.9628C43.101 35.8069 41.1926 36.7955 37.6436 36.7955C34.0945 36.7955 32.1861 35.8069 30.5782 34.9628L30.5392 34.9424C29.2391 34.2598 28.2219 33.7258 25.9476 33.7258C23.6701 33.7258 22.648 34.2615 21.3438 34.9451L21.3085 34.9636C19.7011 35.806 17.7923 36.7955 14.2516 36.7955C12.8323 36.7955 11.6817 35.6644 11.6817 34.2692C11.6817 32.874 12.8323 31.743 14.2516 31.743C16.529 31.743 17.5511 31.2072 18.8553 30.5236C18.867 30.5175 18.8788 30.5113 18.8906 30.5051Z" fill="url(#paint12_linear_0_511)"/>
<path fill-rule="evenodd" clip-rule="evenodd" d="M18.8906 30.5051C20.498 29.6627 22.4068 28.6732 25.9476 28.6732C29.4893 28.6732 31.394 29.6634 32.9991 30.5059L33.0333 30.5239C34.333 31.2062 35.3554 31.743 37.6436 31.743C39.9317 31.743 40.9541 31.2062 42.2538 30.5239L42.288 30.5059C43.8931 29.6634 45.7978 28.6732 49.3396 28.6732C52.8813 28.6732 54.7861 29.6633 56.3902 30.5067L56.4268 30.5259C57.7244 31.2082 58.7414 31.743 61.0171 31.743C62.4363 31.743 63.5869 32.874 63.5869 34.2692C63.5869 35.6644 62.4363 36.7955 61.0171 36.7955C57.4753 36.7955 55.5705 35.8054 53.9664 34.962L53.9299 34.9429C52.6322 34.2605 51.6153 33.7258 49.3396 33.7258C47.0652 33.7258 46.048 34.2598 44.7479 34.9424L44.7089 34.9628C43.101 35.8069 41.1926 36.7955 37.6436 36.7955C34.0945 36.7955 32.1861 35.8069 30.5782 34.9628L30.5392 34.9424C29.2391 34.2598 28.2219 33.7258 25.9476 33.7258C23.6701 33.7258 22.648 34.2615 21.3438 34.9451L21.3085 34.9636C19.7011 35.806 17.7923 36.7955 14.2516 36.7955C12.8323 36.7955 11.6817 35.6644 11.6817 34.2692C11.6817 32.874 12.8323 31.743 14.2516 31.743C16.529 31.743 17.5511 31.2072 18.8553 30.5236C18.867 30.5175 18.8788 30.5113 18.8906 30.5051Z" fill="url(#paint13_radial_0_511)"/>
<path d="M53.9403 56.8288H21.3098C18.6861 56.8288 16.5612 54.7399 16.5612 52.1606V48.5642H58.7259V52.1425C58.7074 54.7399 56.5641 56.8288 53.9403 56.8288Z" fill="url(#paint14_linear_0_511)"/>
<path d="M53.9403 56.8288H21.3098C18.6861 56.8288 16.5612 54.7399 16.5612 52.1606V48.5642H58.7259V52.1425C58.7074 54.7399 56.5641 56.8288 53.9403 56.8288Z" fill="url(#paint15_radial_0_511)"/>
<path d="M58.7075 38.5558H16.5427V40.1361L29.9756 43.0968C35.0014 44.2048 40.2304 44.2048 45.2561 43.0968L58.689 40.1361V38.5558H58.7075Z" fill="url(#paint16_linear_0_511)"/>
<g filter="url(#filter6_f_0_511)">
<path d="M57.8486 39.3066C53.7578 40.7227 46.7977 42.0594 45.6914 42.1953" stroke="url(#paint17_linear_0_511)" stroke-width="0.25"/>
</g>
<g filter="url(#filter7_f_0_511)">
<path d="M17.1133 39.3066C21.2041 40.7227 28.1643 42.0594 29.2705 42.1953" stroke="url(#paint18_linear_0_511)" stroke-width="0.25"/>
</g>
<g filter="url(#filter8_f_0_511)">
<path d="M30.3652 32C31.748 32.8685 35.6199 35.1152 37.7402 35.1152C40.3906 35.1152 48.8228 28.2644 53.8154 30.8672C57.6182 32.8496 60.8639 32.7363 60.5566 32.8496" stroke="url(#paint19_radial_0_511)" stroke-width="0.75"/>
</g>
<g filter="url(#filter9_f_0_511)">
<path d="M22.5293 32.5948C19.7988 33.9978 15.9609 35.8516 13.7139 36.3614L13.0801 32.5948C13.0801 32.5948 13.9952 33.1805 17.5743 31.5469C22.4141 29.338 25.0357 28.375 27.8589 29.2813L30.5957 34.6055C28.848 33.4161 23.7969 31.9434 22.5293 32.5948Z" fill="url(#paint20_linear_0_511)"/>
</g>
<defs>
<filter id="filter0_f_0_511" x="35.2812" y="24.1194" width="3.84547" height="3.79724" filterUnits="userSpaceOnUse" color-interpolation-filters="sRGB">
<feFlood flood-opacity="0" result="BackgroundImageFix"/>
<feBlend mode="normal" in="SourceGraphic" in2="BackgroundImageFix" result="shape"/>
<feGaussianBlur stdDeviation="0.25" result="effect1_foregroundBlur_0_511"/>
</filter>
<filter id="filter1_f_0_511" x="25.1874" y="22.4375" width="4.11127" height="4.08045" filterUnits="userSpaceOnUse" color-interpolation-filters="sRGB">
<feFlood flood-opacity="0" result="BackgroundImageFix"/>
<feBlend mode="normal" in="SourceGraphic" in2="BackgroundImageFix" result="shape"/>
<feGaussianBlur stdDeviation="0.25" result="effect1_foregroundBlur_0_511"/>
</filter>
<filter id="filter2_f_0_511" x="44.7224" y="22.3435" width="3.84547" height="3.79724" filterUnits="userSpaceOnUse" color-interpolation-filters="sRGB">
<feFlood flood-opacity="0" result="BackgroundImageFix"/>
<feBlend mode="normal" in="SourceGraphic" in2="BackgroundImageFix" result="shape"/>
<feGaussianBlur stdDeviation="0.25" result="effect1_foregroundBlur_0_511"/>
</filter>
<filter id="filter3_f_0_511" x="30.3262" y="18.2209" width="4.11127" height="4.08045" filterUnits="userSpaceOnUse" color-interpolation-filters="sRGB">
<feFlood flood-opacity="0" result="BackgroundImageFix"/>
<feBlend mode="normal" in="SourceGraphic" in2="BackgroundImageFix" result="shape"/>
<feGaussianBlur stdDeviation="0.25" result="effect1_foregroundBlur_0_511"/>
</filter>
<filter id="filter4_f_0_511" x="39.5008" y="18.5041" width="3.84547" height="3.79725" filterUnits="userSpaceOnUse" color-interpolation-filters="sRGB">
<feFlood flood-opacity="0" result="BackgroundImageFix"/>
<feBlend mode="normal" in="SourceGraphic" in2="BackgroundImageFix" result="shape"/>
<feGaussianBlur stdDeviation="0.25" result="effect1_foregroundBlur_0_511"/>
</filter>
<filter id="filter5_f_0_511" x="16.959" y="30.4328" width="41.6201" height="7.28954" filterUnits="userSpaceOnUse" color-interpolation-filters="sRGB">
<feFlood flood-opacity="0" result="BackgroundImageFix"/>
<feBlend mode="normal" in="SourceGraphic" in2="BackgroundImageFix" result="shape"/>
<feGaussianBlur stdDeviation="0.25" result="effect1_foregroundBlur_0_511"/>
</filter>
<filter id="filter6_f_0_511" x="45.4262" y="38.9385" width="12.7134" height="3.63086" filterUnits="userSpaceOnUse" color-interpolation-filters="sRGB">
<feFlood flood-opacity="0" result="BackgroundImageFix"/>
<feBlend mode="normal" in="SourceGraphic" in2="BackgroundImageFix" result="shape"/>
<feGaussianBlur stdDeviation="0.125" result="effect1_foregroundBlur_0_511"/>
</filter>
<filter id="filter7_f_0_511" x="16.8224" y="38.9385" width="12.7134" height="3.63086" filterUnits="userSpaceOnUse" color-interpolation-filters="sRGB">
<feFlood flood-opacity="0" result="BackgroundImageFix"/>
<feBlend mode="normal" in="SourceGraphic" in2="BackgroundImageFix" result="shape"/>
<feGaussianBlur stdDeviation="0.125" result="effect1_foregroundBlur_0_511"/>
</filter>
<filter id="filter8_f_0_511" x="29.6658" y="29.4021" width="31.7863" height="6.58807" filterUnits="userSpaceOnUse" color-interpolation-filters="sRGB">
<feFlood flood-opacity="0" result="BackgroundImageFix"/>
<feBlend mode="normal" in="SourceGraphic" in2="BackgroundImageFix" result="shape"/>
<feGaussianBlur stdDeviation="0.25" result="effect1_foregroundBlur_0_511"/>
</filter>
<filter id="filter9_f_0_511" x="12.5801" y="28.4423" width="18.5156" height="8.41909" filterUnits="userSpaceOnUse" color-interpolation-filters="sRGB">
<feFlood flood-opacity="0" result="BackgroundImageFix"/>
<feBlend mode="normal" in="SourceGraphic" in2="BackgroundImageFix" result="shape"/>
<feGaussianBlur stdDeviation="0.25" result="effect1_foregroundBlur_0_511"/>
</filter>
<radialGradient id="paint0_radial_0_511" cx="0" cy="0" r="1" gradientUnits="userSpaceOnUse" gradientTransform="translate(53.412 23.5039) rotate(154.715) scale(29.4396 28.2162)">
<stop offset="0.1309" stop-color="#FFD39B"/>
<stop offset="1" stop-color="#FFD39A" stop-opacity="0"/>
</radialGradient>
<radialGradient id="paint1_radial_0_511" cx="0" cy="0" r="1" gradientUnits="userSpaceOnUse" gradientTransform="translate(38.4275 24.8343) rotate(124.701) scale(3.90856 3.93264)">
<stop offset="0.182479" stop-color="#F6E8D9"/>
<stop offset="0.607105" stop-color="#E2CFC1"/>
</radialGradient>
<radialGradient id="paint2_radial_0_511" cx="0" cy="0" r="1" gradientUnits="userSpaceOnUse" gradientTransform="translate(28.9857 23.2359) rotate(124.701) scale(3.90856 3.93264)">
<stop offset="0.182479" stop-color="#F6E8D9"/>
<stop offset="0.607105" stop-color="#E2CFC1"/>
</radialGradient>
<radialGradient id="paint3_radial_0_511" cx="0" cy="0" r="1" gradientUnits="userSpaceOnUse" gradientTransform="translate(47.8693 23.2359) rotate(124.701) scale(3.90856 3.93264)">
<stop offset="0.182479" stop-color="#F6E8D9"/>
<stop offset="0.607105" stop-color="#E2CFC1"/>
</radialGradient>
<radialGradient id="paint4_radial_0_511" cx="0" cy="0" r="1" gradientUnits="userSpaceOnUse" gradientTransform="translate(33.9374 19.3125) rotate(124.701) scale(3.90856 3.93264)">
<stop offset="0.182479" stop-color="#F6E8D9"/>
<stop offset="0.607105" stop-color="#E2CFC1"/>
</radialGradient>
<radialGradient id="paint5_radial_0_511" cx="0" cy="0" r="1" gradientUnits="userSpaceOnUse" gradientTransform="translate(42.9173 19.3125) rotate(124.701) scale(3.90857 3.93264)">
<stop offset="0.182479" stop-color="#F6E8D9"/>
<stop offset="0.607105" stop-color="#E2CFC1"/>
</radialGradient>
<linearGradient id="paint6_linear_0_511" x1="16.5427" y1="38.5559" x2="58.7075" y2="38.5559" gradientUnits="userSpaceOnUse">
<stop stop-color="#DD7476"/>
<stop offset="0.0845882" stop-color="#E2565F"/>
<stop offset="0.2431" stop-color="#DE445C"/>
<stop offset="0.508196" stop-color="#D62650"/>
<stop offset="0.784225" stop-color="#EB4A80"/>
<stop offset="0.940004" stop-color="#DB4379"/>
<stop offset="1" stop-color="#D45E85"/>
</linearGradient>
<linearGradient id="paint7_linear_0_511" x1="37.6251" y1="39.1367" x2="37.6251" y2="37.4374" gradientUnits="userSpaceOnUse">
<stop offset="0.466666" stop-color="#E72D62"/>
<stop offset="0.846154" stop-color="#E72E64" stop-opacity="0"/>
</linearGradient>
<linearGradient id="paint8_linear_0_511" x1="37.625" y1="40.1361" x2="37.625" y2="48.5642" gradientUnits="userSpaceOnUse">
<stop stop-color="#946B52"/>
<stop offset="0.311531" stop-color="#A77A6F"/>
<stop offset="0.660996" stop-color="#98655D"/>
<stop offset="1" stop-color="#86536D"/>
</linearGradient>
<radialGradient id="paint9_radial_0_511" cx="0" cy="0" r="1" gradientUnits="userSpaceOnUse" gradientTransform="translate(28.4063 39.4766) rotate(84.1916) scale(10.2479 34.437)">
<stop stop-color="#6B544C"/>
<stop offset="1" stop-color="#6B544C" stop-opacity="0"/>
</radialGradient>
<radialGradient id="paint10_radial_0_511" cx="0" cy="0" r="1" gradientUnits="userSpaceOnUse" gradientTransform="translate(37.625 47.1797) rotate(90) scale(6.79687 21.7126)">
<stop stop-color="#803E4C"/>
<stop offset="1" stop-color="#824456" stop-opacity="0"/>
</radialGradient>
<linearGradient id="paint11_linear_0_511" x1="12.2734" y1="33.1612" x2="62.8613" y2="33.1612" gradientUnits="userSpaceOnUse">
<stop stop-color="#437151"/>
<stop offset="0.507973" stop-color="#619F49"/>
<stop offset="1" stop-color="#79B142"/>
</linearGradient>
<linearGradient id="paint12_linear_0_511" x1="12.2735" y1="32.7344" x2="62.8614" y2="32.7344" gradientUnits="userSpaceOnUse">
<stop stop-color="#437151"/>
<stop offset="0.507973" stop-color="#619F49"/>
<stop offset="1" stop-color="#79B142"/>
</linearGradient>
<radialGradient id="paint13_radial_0_511" cx="0" cy="0" r="1" gradientUnits="userSpaceOnUse" gradientTransform="translate(13.1954 33.9824) rotate(81.7316) scale(3.20519 9.02333)">
<stop stop-color="#6C9B83"/>
<stop offset="1" stop-color="#6D9B85" stop-opacity="0"/>
</radialGradient>
<linearGradient id="paint14_linear_0_511" x1="37.6436" y1="48.5642" x2="37.6436" y2="56.8288" gradientUnits="userSpaceOnUse">
<stop stop-color="#E18F63"/>
<stop offset="0.380746" stop-color="#E89C6E"/>
<stop offset="0.572642" stop-color="#EA9D75"/>
<stop offset="1" stop-color="#E0819D"/>
</linearGradient>
<radialGradient id="paint15_radial_0_511" cx="0" cy="0" r="1" gradientUnits="userSpaceOnUse" gradientTransform="translate(59.4044 51.371) rotate(90) scale(6.57031 37.7334)">
<stop stop-color="#FFD5AE"/>
<stop offset="1" stop-color="#FFC8A0" stop-opacity="0"/>
</radialGradient>
<linearGradient id="paint16_linear_0_511" x1="37.6251" y1="36.871" x2="37.6251" y2="43.9278" gradientUnits="userSpaceOnUse">
<stop stop-color="#C7850F"/>
<stop offset="0.488297" stop-color="#F0CD2D"/>
<stop offset="1" stop-color="#F7C747"/>
</linearGradient>
<linearGradient id="paint17_linear_0_511" x1="43.8477" y1="41.4023" x2="44.089" y2="37.8095" gradientUnits="userSpaceOnUse">
<stop stop-color="#FFE07A" stop-opacity="0"/>
<stop offset="0.217647" stop-color="#FFE68F"/>
<stop offset="1" stop-color="#FFDB5C"/>
</linearGradient>
<linearGradient id="paint18_linear_0_511" x1="31.1143" y1="41.4023" x2="30.8729" y2="37.8095" gradientUnits="userSpaceOnUse">
<stop stop-color="#FFE07A" stop-opacity="0"/>
<stop offset="0.217647" stop-color="#FFE68F"/>
<stop offset="1" stop-color="#FFDB5C"/>
</linearGradient>
<radialGradient id="paint19_radial_0_511" cx="0" cy="0" r="1" gradientUnits="userSpaceOnUse" gradientTransform="translate(48.1113 30.8672) rotate(15.4417) scale(14.4655 6.88245)">
<stop offset="0.226614" stop-color="#87BE66"/>
<stop offset="1" stop-color="#92C771" stop-opacity="0"/>
</radialGradient>
<linearGradient id="paint20_linear_0_511" x1="14.6934" y1="34.4356" x2="29.6053" y2="32.21" gradientUnits="userSpaceOnUse">
<stop stop-color="#66987E"/>
<stop offset="0.457848" stop-color="#66987E" stop-opacity="0.542152"/>
<stop offset="1" stop-color="#66987E" stop-opacity="0"/>
</linearGradient>
</defs>
</svg>
